<svg xmlns="http://www.w3.org/2000/svg" width="24" height="24" viewBox="0 0 14.56 14.56">
  <defs>
    <style>
      .cls-1 {
        fill: #616161;
      }
    </style>
  </defs>
  <path id="ic_my_location_24px" class="cls-1" d="M8.28,5.633A2.647,2.647,0,1,0,10.927,8.28,2.647,2.647,0,0,0,8.28,5.633ZM14.2,7.618A5.953,5.953,0,0,0,8.942,2.363V1H7.618V2.363A5.953,5.953,0,0,0,2.363,7.618H1V8.942H2.363A5.953,5.953,0,0,0,7.618,14.2V15.56H8.942V14.2A5.953,5.953,0,0,0,14.2,8.942H15.56V7.618H14.2ZM8.28,12.913A4.633,4.633,0,1,1,12.913,8.28,4.629,4.629,0,0,1,8.28,12.913Z" transform="translate(-1 -1)"/>
</svg>
