<svg xmlns="http://www.w3.org/2000/svg" width="19.011" height="25.387" viewBox="0 0 19.011 25.387">
  <defs>
    <style>
      .cls-1 {
        fill: #56bbff;
      }
    </style>
  </defs>
  <path id="ic_directions_run_24px" class="cls-1" d="M15.407,6.2a2.362,2.362,0,1,0-2.362-2.362A2.369,2.369,0,0,0,15.407,6.2ZM11.156,22.617l1.181-5.2,2.48,2.362v7.085h2.362V18.011L14.7,15.65l.708-3.542A8.646,8.646,0,0,0,21.9,15.059V12.7a5.809,5.809,0,0,1-5.077-2.834L15.643,7.974a2.435,2.435,0,0,0-2.007-1.181c-.354,0-.59.118-.945.118l-6.14,2.6v5.55H8.912V11.045l2.125-.827L9.148,19.783,3.362,18.6,2.89,20.963Z" transform="translate(-2.89 -1.48)"/>
</svg>
