<svg id="Icon" xmlns="http://www.w3.org/2000/svg" width="13" height="38" viewBox="0 0 13 38">
  <defs>
    <style>
      .cls-1, .cls-2 {
        fill: none;
      }

      .cls-2 {
        stroke: #4ab7ff;
        stroke-width: 3px;
      }

      .cls-3, .cls-4 {
        stroke: none;
      }

      .cls-4 {
        fill: #4ab7ff;
      }
    </style>
  </defs>
  <g id="Path_40" data-name="Path 40" class="cls-1">
    <path class="cls-3" d="M6.5,0A6.5,6.5,0,1,1,0,6.5,6.5,6.5,0,0,1,6.5,0Z"/>
    <path class="cls-4" d="M 6.5 3 C 4.570090293884277 3 3 4.570090293884277 3 6.5 C 3 8.429910659790039 4.570090293884277 10 6.5 10 C 8.429910659790039 10 10 8.429910659790039 10 6.5 C 10 4.570090293884277 8.429910659790039 3 6.5 3 M 6.5 0 C 10.0898494720459 0 13 2.910149574279785 13 6.5 C 13 10.0898494720459 10.0898494720459 13 6.5 13 C 2.910149574279785 13 0 10.0898494720459 0 6.5 C 0 2.910149574279785 2.910149574279785 0 6.5 0 Z"/>
  </g>
  <g id="Path_41" data-name="Path 41" class="cls-1" transform="translate(0 25)">
    <path class="cls-3" d="M6.5,0A6.5,6.5,0,1,1,0,6.5,6.5,6.5,0,0,1,6.5,0Z"/>
    <path class="cls-4" d="M 6.5 3 C 4.570090293884277 3 3 4.570090293884277 3 6.5 C 3 8.429910659790039 4.570090293884277 10 6.5 10 C 8.429910659790039 10 10 8.429910659790039 10 6.5 C 10 4.570090293884277 8.429910659790039 3 6.5 3 M 6.5 0 C 10.0898494720459 0 13 2.910149574279785 13 6.5 C 13 10.0898494720459 10.0898494720459 13 6.5 13 C 2.910149574279785 13 0 10.0898494720459 0 6.5 C 0 2.910149574279785 2.910149574279785 0 6.5 0 Z"/>
  </g>
  <line id="Line_2" data-name="Line 2" class="cls-2" y2="13.008" transform="translate(6.711 12.418)"/>
</svg>
